<mxfile host="app.diagrams.net" agent="Mozilla/5.0 (Windows NT 10.0; Win64; x64; rv:135.0) Gecko/20100101 Firefox/135.0" version="26.0.11">
  <diagram name="Page-1" id="qQFrpF6dce2cD-MA6rXe">
    <mxGraphModel dx="-1206" dy="1183" grid="1" gridSize="10" guides="1" tooltips="1" connect="1" arrows="1" fold="1" page="0" pageScale="1" pageWidth="850" pageHeight="1100" background="#FFFFFF" math="0" shadow="0" adaptiveColors="none">
      <root>
        <mxCell id="0" />
        <mxCell id="1" parent="0" />
        <mxCell id="T3gcn7meiSQSCldg2xHH-19" value="Fiscal" style="swimlane;fontStyle=0;childLayout=stackLayout;horizontal=1;startSize=26;fillColor=none;horizontalStack=0;resizeParent=1;resizeParentMax=0;resizeLast=0;collapsible=1;marginBottom=0;html=1;rounded=1;labelBackgroundColor=none;" parent="1" vertex="1">
          <mxGeometry x="2940" y="-60" width="140" height="130" as="geometry">
            <mxRectangle x="215" y="750" width="80" height="30" as="alternateBounds" />
          </mxGeometry>
        </mxCell>
        <mxCell id="T3gcn7meiSQSCldg2xHH-20" value="&lt;div&gt;CPF: String&lt;/div&gt;&lt;div&gt;&lt;br&gt;&lt;/div&gt;" style="text;strokeColor=none;fillColor=none;align=left;verticalAlign=top;spacingLeft=4;spacingRight=4;overflow=hidden;rotatable=0;points=[[0,0.5],[1,0.5]];portConstraint=eastwest;whiteSpace=wrap;html=1;rounded=1;labelBackgroundColor=none;" parent="T3gcn7meiSQSCldg2xHH-19" vertex="1">
          <mxGeometry y="26" width="140" height="26" as="geometry" />
        </mxCell>
        <mxCell id="T3gcn7meiSQSCldg2xHH-21" value="Nome: String" style="text;strokeColor=none;fillColor=none;align=left;verticalAlign=top;spacingLeft=4;spacingRight=4;overflow=hidden;rotatable=0;points=[[0,0.5],[1,0.5]];portConstraint=eastwest;whiteSpace=wrap;html=1;rounded=1;labelBackgroundColor=none;" parent="T3gcn7meiSQSCldg2xHH-19" vertex="1">
          <mxGeometry y="52" width="140" height="26" as="geometry" />
        </mxCell>
        <mxCell id="T3gcn7meiSQSCldg2xHH-22" value="Email: String" style="text;strokeColor=none;fillColor=none;align=left;verticalAlign=top;spacingLeft=4;spacingRight=4;overflow=hidden;rotatable=0;points=[[0,0.5],[1,0.5]];portConstraint=eastwest;whiteSpace=wrap;html=1;rounded=1;labelBackgroundColor=none;" parent="T3gcn7meiSQSCldg2xHH-19" vertex="1">
          <mxGeometry y="78" width="140" height="26" as="geometry" />
        </mxCell>
        <mxCell id="T3gcn7meiSQSCldg2xHH-23" value="Telefone: String" style="text;strokeColor=none;fillColor=none;align=left;verticalAlign=top;spacingLeft=4;spacingRight=4;overflow=hidden;rotatable=0;points=[[0,0.5],[1,0.5]];portConstraint=eastwest;whiteSpace=wrap;html=1;rounded=1;labelBackgroundColor=none;" parent="T3gcn7meiSQSCldg2xHH-19" vertex="1">
          <mxGeometry y="104" width="140" height="26" as="geometry" />
        </mxCell>
        <mxCell id="T3gcn7meiSQSCldg2xHH-32" value="" style="edgeStyle=orthogonalEdgeStyle;rounded=1;orthogonalLoop=1;jettySize=auto;html=1;labelBackgroundColor=none;fontColor=default;" parent="1" source="T3gcn7meiSQSCldg2xHH-34" target="T3gcn7meiSQSCldg2xHH-41" edge="1">
          <mxGeometry relative="1" as="geometry" />
        </mxCell>
        <mxCell id="T3gcn7meiSQSCldg2xHH-33" value="" style="edgeStyle=orthogonalEdgeStyle;rounded=1;orthogonalLoop=1;jettySize=auto;html=1;labelBackgroundColor=none;fontColor=default;" parent="1" source="T3gcn7meiSQSCldg2xHH-34" target="T3gcn7meiSQSCldg2xHH-45" edge="1">
          <mxGeometry relative="1" as="geometry" />
        </mxCell>
        <mxCell id="T3gcn7meiSQSCldg2xHH-34" value="Animal" style="swimlane;fontStyle=1;align=center;verticalAlign=top;childLayout=stackLayout;horizontal=1;startSize=26;horizontalStack=0;resizeParent=1;resizeParentMax=0;resizeLast=0;collapsible=1;marginBottom=0;whiteSpace=wrap;html=1;rounded=1;labelBackgroundColor=none;" parent="1" vertex="1">
          <mxGeometry x="3350" y="-60" width="160" height="164" as="geometry" />
        </mxCell>
        <mxCell id="T3gcn7meiSQSCldg2xHH-35" value="id: int" style="text;strokeColor=none;fillColor=none;align=left;verticalAlign=top;spacingLeft=4;spacingRight=4;overflow=hidden;rotatable=0;points=[[0,0.5],[1,0.5]];portConstraint=eastwest;whiteSpace=wrap;html=1;rounded=1;labelBackgroundColor=none;" parent="T3gcn7meiSQSCldg2xHH-34" vertex="1">
          <mxGeometry y="26" width="160" height="26" as="geometry" />
        </mxCell>
        <mxCell id="T3gcn7meiSQSCldg2xHH-36" value="especie: String" style="text;strokeColor=none;fillColor=none;align=left;verticalAlign=top;spacingLeft=4;spacingRight=4;overflow=hidden;rotatable=0;points=[[0,0.5],[1,0.5]];portConstraint=eastwest;whiteSpace=wrap;html=1;rounded=1;labelBackgroundColor=none;" parent="T3gcn7meiSQSCldg2xHH-34" vertex="1">
          <mxGeometry y="52" width="160" height="26" as="geometry" />
        </mxCell>
        <mxCell id="T3gcn7meiSQSCldg2xHH-37" value="cor: String" style="text;strokeColor=none;fillColor=none;align=left;verticalAlign=top;spacingLeft=4;spacingRight=4;overflow=hidden;rotatable=0;points=[[0,0.5],[1,0.5]];portConstraint=eastwest;whiteSpace=wrap;html=1;rounded=1;labelBackgroundColor=none;" parent="T3gcn7meiSQSCldg2xHH-34" vertex="1">
          <mxGeometry y="78" width="160" height="26" as="geometry" />
        </mxCell>
        <mxCell id="T3gcn7meiSQSCldg2xHH-38" value="descrição: String" style="text;strokeColor=none;fillColor=none;align=left;verticalAlign=top;spacingLeft=4;spacingRight=4;overflow=hidden;rotatable=0;points=[[0,0.5],[1,0.5]];portConstraint=eastwest;whiteSpace=wrap;html=1;rounded=1;labelBackgroundColor=none;" parent="T3gcn7meiSQSCldg2xHH-34" vertex="1">
          <mxGeometry y="104" width="160" height="26" as="geometry" />
        </mxCell>
        <mxCell id="T3gcn7meiSQSCldg2xHH-39" value="" style="line;strokeWidth=1;fillColor=none;align=left;verticalAlign=middle;spacingTop=-1;spacingLeft=3;spacingRight=3;rotatable=0;labelPosition=right;points=[];portConstraint=eastwest;rounded=1;labelBackgroundColor=none;" parent="T3gcn7meiSQSCldg2xHH-34" vertex="1">
          <mxGeometry y="130" width="160" height="8" as="geometry" />
        </mxCell>
        <mxCell id="T3gcn7meiSQSCldg2xHH-40" value="+ method(type): type" style="text;strokeColor=none;fillColor=none;align=left;verticalAlign=top;spacingLeft=4;spacingRight=4;overflow=hidden;rotatable=0;points=[[0,0.5],[1,0.5]];portConstraint=eastwest;whiteSpace=wrap;html=1;rounded=1;labelBackgroundColor=none;" parent="T3gcn7meiSQSCldg2xHH-34" vertex="1">
          <mxGeometry y="138" width="160" height="26" as="geometry" />
        </mxCell>
        <mxCell id="T3gcn7meiSQSCldg2xHH-41" value="&lt;span class=&quot;hljs-title class_&quot;&gt;AnimalSilvestre&lt;/span&gt; &lt;span class=&quot;hljs-keyword&quot;&gt;&lt;/span&gt;" style="swimlane;fontStyle=1;align=center;verticalAlign=top;childLayout=stackLayout;horizontal=1;startSize=26;horizontalStack=0;resizeParent=1;resizeParentMax=0;resizeLast=0;collapsible=1;marginBottom=0;whiteSpace=wrap;html=1;rounded=1;labelBackgroundColor=none;" parent="1" vertex="1">
          <mxGeometry x="3260" y="164" width="160" height="86" as="geometry" />
        </mxCell>
        <mxCell id="T3gcn7meiSQSCldg2xHH-42" value="." style="text;strokeColor=none;fillColor=none;align=left;verticalAlign=top;spacingLeft=4;spacingRight=4;overflow=hidden;rotatable=0;points=[[0,0.5],[1,0.5]];portConstraint=eastwest;whiteSpace=wrap;html=1;rounded=1;labelBackgroundColor=none;" parent="T3gcn7meiSQSCldg2xHH-41" vertex="1">
          <mxGeometry y="26" width="160" height="26" as="geometry" />
        </mxCell>
        <mxCell id="T3gcn7meiSQSCldg2xHH-43" value="" style="line;strokeWidth=1;fillColor=none;align=left;verticalAlign=middle;spacingTop=-1;spacingLeft=3;spacingRight=3;rotatable=0;labelPosition=right;points=[];portConstraint=eastwest;rounded=1;labelBackgroundColor=none;" parent="T3gcn7meiSQSCldg2xHH-41" vertex="1">
          <mxGeometry y="52" width="160" height="8" as="geometry" />
        </mxCell>
        <mxCell id="T3gcn7meiSQSCldg2xHH-44" value="+ method(type): type" style="text;strokeColor=none;fillColor=none;align=left;verticalAlign=top;spacingLeft=4;spacingRight=4;overflow=hidden;rotatable=0;points=[[0,0.5],[1,0.5]];portConstraint=eastwest;whiteSpace=wrap;html=1;rounded=1;labelBackgroundColor=none;" parent="T3gcn7meiSQSCldg2xHH-41" vertex="1">
          <mxGeometry y="60" width="160" height="26" as="geometry" />
        </mxCell>
        <mxCell id="T3gcn7meiSQSCldg2xHH-45" value="Animal" style="swimlane;fontStyle=1;align=center;verticalAlign=top;childLayout=stackLayout;horizontal=1;startSize=26;horizontalStack=0;resizeParent=1;resizeParentMax=0;resizeLast=0;collapsible=1;marginBottom=0;whiteSpace=wrap;html=1;rounded=1;labelBackgroundColor=none;" parent="1" vertex="1">
          <mxGeometry x="3440" y="164" width="160" height="86" as="geometry" />
        </mxCell>
        <mxCell id="T3gcn7meiSQSCldg2xHH-46" value="donos: ArrayList&amp;lt;Pessoa&amp;gt;" style="text;strokeColor=none;fillColor=none;align=left;verticalAlign=top;spacingLeft=4;spacingRight=4;overflow=hidden;rotatable=0;points=[[0,0.5],[1,0.5]];portConstraint=eastwest;whiteSpace=wrap;html=1;rounded=1;labelBackgroundColor=none;" parent="T3gcn7meiSQSCldg2xHH-45" vertex="1">
          <mxGeometry y="26" width="160" height="26" as="geometry" />
        </mxCell>
        <mxCell id="T3gcn7meiSQSCldg2xHH-47" value="" style="line;strokeWidth=1;fillColor=none;align=left;verticalAlign=middle;spacingTop=-1;spacingLeft=3;spacingRight=3;rotatable=0;labelPosition=right;points=[];portConstraint=eastwest;rounded=1;labelBackgroundColor=none;" parent="T3gcn7meiSQSCldg2xHH-45" vertex="1">
          <mxGeometry y="52" width="160" height="8" as="geometry" />
        </mxCell>
        <mxCell id="T3gcn7meiSQSCldg2xHH-48" value="+ method(type): type" style="text;strokeColor=none;fillColor=none;align=left;verticalAlign=top;spacingLeft=4;spacingRight=4;overflow=hidden;rotatable=0;points=[[0,0.5],[1,0.5]];portConstraint=eastwest;whiteSpace=wrap;html=1;rounded=1;labelBackgroundColor=none;" parent="T3gcn7meiSQSCldg2xHH-45" vertex="1">
          <mxGeometry y="60" width="160" height="26" as="geometry" />
        </mxCell>
        <mxCell id="T3gcn7meiSQSCldg2xHH-235" value="Pessoa" style="swimlane;fontStyle=0;childLayout=stackLayout;horizontal=1;startSize=26;fillColor=none;horizontalStack=0;resizeParent=1;resizeParentMax=0;resizeLast=0;collapsible=1;marginBottom=0;html=1;rounded=1;labelBackgroundColor=none;" parent="1" vertex="1">
          <mxGeometry x="3640" y="-60" width="140" height="182" as="geometry">
            <mxRectangle x="215" y="750" width="80" height="30" as="alternateBounds" />
          </mxGeometry>
        </mxCell>
        <mxCell id="T3gcn7meiSQSCldg2xHH-236" value="&lt;div&gt;RG: String&lt;/div&gt;&lt;div&gt;&lt;br&gt;&lt;/div&gt;" style="text;strokeColor=none;fillColor=none;align=left;verticalAlign=top;spacingLeft=4;spacingRight=4;overflow=hidden;rotatable=0;points=[[0,0.5],[1,0.5]];portConstraint=eastwest;whiteSpace=wrap;html=1;rounded=1;labelBackgroundColor=none;" parent="T3gcn7meiSQSCldg2xHH-235" vertex="1">
          <mxGeometry y="26" width="140" height="26" as="geometry" />
        </mxCell>
        <mxCell id="T3gcn7meiSQSCldg2xHH-237" value="&lt;div&gt;CPF: String&lt;/div&gt;&lt;div&gt;&lt;br&gt;&lt;/div&gt;" style="text;strokeColor=none;fillColor=none;align=left;verticalAlign=top;spacingLeft=4;spacingRight=4;overflow=hidden;rotatable=0;points=[[0,0.5],[1,0.5]];portConstraint=eastwest;whiteSpace=wrap;html=1;rounded=1;labelBackgroundColor=none;" parent="T3gcn7meiSQSCldg2xHH-235" vertex="1">
          <mxGeometry y="52" width="140" height="26" as="geometry" />
        </mxCell>
        <mxCell id="T3gcn7meiSQSCldg2xHH-238" value="Nome: String" style="text;strokeColor=none;fillColor=none;align=left;verticalAlign=top;spacingLeft=4;spacingRight=4;overflow=hidden;rotatable=0;points=[[0,0.5],[1,0.5]];portConstraint=eastwest;whiteSpace=wrap;html=1;rounded=1;labelBackgroundColor=none;" parent="T3gcn7meiSQSCldg2xHH-235" vertex="1">
          <mxGeometry y="78" width="140" height="26" as="geometry" />
        </mxCell>
        <mxCell id="T3gcn7meiSQSCldg2xHH-239" value="Email: String" style="text;strokeColor=none;fillColor=none;align=left;verticalAlign=top;spacingLeft=4;spacingRight=4;overflow=hidden;rotatable=0;points=[[0,0.5],[1,0.5]];portConstraint=eastwest;whiteSpace=wrap;html=1;rounded=1;labelBackgroundColor=none;" parent="T3gcn7meiSQSCldg2xHH-235" vertex="1">
          <mxGeometry y="104" width="140" height="26" as="geometry" />
        </mxCell>
        <mxCell id="T3gcn7meiSQSCldg2xHH-240" value="Telefone: String" style="text;strokeColor=none;fillColor=none;align=left;verticalAlign=top;spacingLeft=4;spacingRight=4;overflow=hidden;rotatable=0;points=[[0,0.5],[1,0.5]];portConstraint=eastwest;whiteSpace=wrap;html=1;rounded=1;labelBackgroundColor=none;" parent="T3gcn7meiSQSCldg2xHH-235" vertex="1">
          <mxGeometry y="130" width="140" height="26" as="geometry" />
        </mxCell>
        <mxCell id="T3gcn7meiSQSCldg2xHH-241" value="Foto: URL" style="text;strokeColor=none;fillColor=none;align=left;verticalAlign=top;spacingLeft=4;spacingRight=4;overflow=hidden;rotatable=0;points=[[0,0.5],[1,0.5]];portConstraint=eastwest;whiteSpace=wrap;html=1;rounded=1;labelBackgroundColor=none;" parent="T3gcn7meiSQSCldg2xHH-235" vertex="1">
          <mxGeometry y="156" width="140" height="26" as="geometry" />
        </mxCell>
        <mxCell id="T3gcn7meiSQSCldg2xHH-242" value="Ocorrencia" style="swimlane;fontStyle=0;childLayout=stackLayout;horizontal=1;startSize=26;fillColor=none;horizontalStack=0;resizeParent=1;resizeParentMax=0;resizeLast=0;collapsible=1;marginBottom=0;html=1;rounded=1;labelBackgroundColor=none;" parent="1" vertex="1">
          <mxGeometry x="3790" y="-60" width="140" height="182" as="geometry">
            <mxRectangle x="215" y="750" width="80" height="30" as="alternateBounds" />
          </mxGeometry>
        </mxCell>
        <mxCell id="T3gcn7meiSQSCldg2xHH-243" value="Autor &amp;lt;Pessoa&amp;gt;" style="text;strokeColor=none;fillColor=none;align=left;verticalAlign=top;spacingLeft=4;spacingRight=4;overflow=hidden;rotatable=0;points=[[0,0.5],[1,0.5]];portConstraint=eastwest;whiteSpace=wrap;html=1;rounded=1;labelBackgroundColor=none;" parent="T3gcn7meiSQSCldg2xHH-242" vertex="1">
          <mxGeometry y="26" width="140" height="26" as="geometry" />
        </mxCell>
        <mxCell id="T3gcn7meiSQSCldg2xHH-244" value="Animal &amp;lt;Animal&amp;gt;" style="text;strokeColor=none;fillColor=none;align=left;verticalAlign=top;spacingLeft=4;spacingRight=4;overflow=hidden;rotatable=0;points=[[0,0.5],[1,0.5]];portConstraint=eastwest;whiteSpace=wrap;html=1;rounded=1;labelBackgroundColor=none;" parent="T3gcn7meiSQSCldg2xHH-242" vertex="1">
          <mxGeometry y="52" width="140" height="26" as="geometry" />
        </mxCell>
        <mxCell id="T3gcn7meiSQSCldg2xHH-245" value="Fiscal &amp;lt;Fiscal&amp;gt;" style="text;strokeColor=none;fillColor=none;align=left;verticalAlign=top;spacingLeft=4;spacingRight=4;overflow=hidden;rotatable=0;points=[[0,0.5],[1,0.5]];portConstraint=eastwest;whiteSpace=wrap;html=1;rounded=1;labelBackgroundColor=none;" parent="T3gcn7meiSQSCldg2xHH-242" vertex="1">
          <mxGeometry y="78" width="140" height="26" as="geometry" />
        </mxCell>
        <mxCell id="T3gcn7meiSQSCldg2xHH-246" value="descricao: String" style="text;strokeColor=none;fillColor=none;align=left;verticalAlign=top;spacingLeft=4;spacingRight=4;overflow=hidden;rotatable=0;points=[[0,0.5],[1,0.5]];portConstraint=eastwest;whiteSpace=wrap;html=1;rounded=1;labelBackgroundColor=none;" parent="T3gcn7meiSQSCldg2xHH-242" vertex="1">
          <mxGeometry y="104" width="140" height="26" as="geometry" />
        </mxCell>
        <mxCell id="T3gcn7meiSQSCldg2xHH-247" value="Acolhedor &amp;lt;Pessoa&amp;gt;" style="text;strokeColor=none;fillColor=none;align=left;verticalAlign=top;spacingLeft=4;spacingRight=4;overflow=hidden;rotatable=0;points=[[0,0.5],[1,0.5]];portConstraint=eastwest;whiteSpace=wrap;html=1;rounded=1;labelBackgroundColor=none;" parent="T3gcn7meiSQSCldg2xHH-242" vertex="1">
          <mxGeometry y="130" width="140" height="26" as="geometry" />
        </mxCell>
        <mxCell id="T3gcn7meiSQSCldg2xHH-248" value="Data: TimeStamp" style="text;strokeColor=none;fillColor=none;align=left;verticalAlign=top;spacingLeft=4;spacingRight=4;overflow=hidden;rotatable=0;points=[[0,0.5],[1,0.5]];portConstraint=eastwest;whiteSpace=wrap;html=1;rounded=1;labelBackgroundColor=none;" parent="T3gcn7meiSQSCldg2xHH-242" vertex="1">
          <mxGeometry y="156" width="140" height="26" as="geometry" />
        </mxCell>
        <mxCell id="T3gcn7meiSQSCldg2xHH-249" value="Fiscal" style="swimlane;fontStyle=0;childLayout=stackLayout;horizontal=1;startSize=26;fillColor=none;horizontalStack=0;resizeParent=1;resizeParentMax=0;resizeLast=0;collapsible=1;marginBottom=0;html=1;rounded=1;labelBackgroundColor=none;" parent="1" vertex="1">
          <mxGeometry x="3940" y="-60" width="140" height="130" as="geometry">
            <mxRectangle x="215" y="750" width="80" height="30" as="alternateBounds" />
          </mxGeometry>
        </mxCell>
        <mxCell id="T3gcn7meiSQSCldg2xHH-250" value="&lt;div&gt;CPF: String&lt;/div&gt;&lt;div&gt;&lt;br&gt;&lt;/div&gt;" style="text;strokeColor=none;fillColor=none;align=left;verticalAlign=top;spacingLeft=4;spacingRight=4;overflow=hidden;rotatable=0;points=[[0,0.5],[1,0.5]];portConstraint=eastwest;whiteSpace=wrap;html=1;rounded=1;labelBackgroundColor=none;" parent="T3gcn7meiSQSCldg2xHH-249" vertex="1">
          <mxGeometry y="26" width="140" height="26" as="geometry" />
        </mxCell>
        <mxCell id="T3gcn7meiSQSCldg2xHH-251" value="Nome: String" style="text;strokeColor=none;fillColor=none;align=left;verticalAlign=top;spacingLeft=4;spacingRight=4;overflow=hidden;rotatable=0;points=[[0,0.5],[1,0.5]];portConstraint=eastwest;whiteSpace=wrap;html=1;rounded=1;labelBackgroundColor=none;" parent="T3gcn7meiSQSCldg2xHH-249" vertex="1">
          <mxGeometry y="52" width="140" height="26" as="geometry" />
        </mxCell>
        <mxCell id="T3gcn7meiSQSCldg2xHH-252" value="Email: String" style="text;strokeColor=none;fillColor=none;align=left;verticalAlign=top;spacingLeft=4;spacingRight=4;overflow=hidden;rotatable=0;points=[[0,0.5],[1,0.5]];portConstraint=eastwest;whiteSpace=wrap;html=1;rounded=1;labelBackgroundColor=none;" parent="T3gcn7meiSQSCldg2xHH-249" vertex="1">
          <mxGeometry y="78" width="140" height="26" as="geometry" />
        </mxCell>
        <mxCell id="T3gcn7meiSQSCldg2xHH-253" value="Telefone: String" style="text;strokeColor=none;fillColor=none;align=left;verticalAlign=top;spacingLeft=4;spacingRight=4;overflow=hidden;rotatable=0;points=[[0,0.5],[1,0.5]];portConstraint=eastwest;whiteSpace=wrap;html=1;rounded=1;labelBackgroundColor=none;" parent="T3gcn7meiSQSCldg2xHH-249" vertex="1">
          <mxGeometry y="104" width="140" height="26" as="geometry" />
        </mxCell>
        <mxCell id="T3gcn7meiSQSCldg2xHH-254" value="Multa" style="swimlane;fontStyle=0;childLayout=stackLayout;horizontal=1;startSize=26;fillColor=none;horizontalStack=0;resizeParent=1;resizeParentMax=0;resizeLast=0;collapsible=1;marginBottom=0;html=1;rounded=1;labelBackgroundColor=none;" parent="1" vertex="1">
          <mxGeometry x="3640" y="130" width="140" height="208" as="geometry">
            <mxRectangle x="215" y="750" width="80" height="30" as="alternateBounds" />
          </mxGeometry>
        </mxCell>
        <mxCell id="T3gcn7meiSQSCldg2xHH-255" value="id: int" style="text;strokeColor=none;fillColor=none;align=left;verticalAlign=top;spacingLeft=4;spacingRight=4;overflow=hidden;rotatable=0;points=[[0,0.5],[1,0.5]];portConstraint=eastwest;whiteSpace=wrap;html=1;rounded=1;labelBackgroundColor=none;" parent="T3gcn7meiSQSCldg2xHH-254" vertex="1">
          <mxGeometry y="26" width="140" height="26" as="geometry" />
        </mxCell>
        <mxCell id="T3gcn7meiSQSCldg2xHH-256" value="pessoa: Pessoa" style="text;strokeColor=none;fillColor=none;align=left;verticalAlign=top;spacingLeft=4;spacingRight=4;overflow=hidden;rotatable=0;points=[[0,0.5],[1,0.5]];portConstraint=eastwest;whiteSpace=wrap;html=1;rounded=1;labelBackgroundColor=none;" parent="T3gcn7meiSQSCldg2xHH-254" vertex="1">
          <mxGeometry y="52" width="140" height="26" as="geometry" />
        </mxCell>
        <mxCell id="T3gcn7meiSQSCldg2xHH-257" value="&lt;div&gt;cpf: String&lt;/div&gt;&lt;div&gt;&lt;br&gt;&lt;/div&gt;" style="text;strokeColor=none;fillColor=none;align=left;verticalAlign=top;spacingLeft=4;spacingRight=4;overflow=hidden;rotatable=0;points=[[0,0.5],[1,0.5]];portConstraint=eastwest;whiteSpace=wrap;html=1;rounded=1;labelBackgroundColor=none;" parent="T3gcn7meiSQSCldg2xHH-254" vertex="1">
          <mxGeometry y="78" width="140" height="26" as="geometry" />
        </mxCell>
        <mxCell id="T3gcn7meiSQSCldg2xHH-258" value="nome: String" style="text;strokeColor=none;fillColor=none;align=left;verticalAlign=top;spacingLeft=4;spacingRight=4;overflow=hidden;rotatable=0;points=[[0,0.5],[1,0.5]];portConstraint=eastwest;whiteSpace=wrap;html=1;rounded=1;labelBackgroundColor=none;" parent="T3gcn7meiSQSCldg2xHH-254" vertex="1">
          <mxGeometry y="104" width="140" height="26" as="geometry" />
        </mxCell>
        <mxCell id="T3gcn7meiSQSCldg2xHH-259" value="email: String" style="text;strokeColor=none;fillColor=none;align=left;verticalAlign=top;spacingLeft=4;spacingRight=4;overflow=hidden;rotatable=0;points=[[0,0.5],[1,0.5]];portConstraint=eastwest;whiteSpace=wrap;html=1;rounded=1;labelBackgroundColor=none;" parent="T3gcn7meiSQSCldg2xHH-254" vertex="1">
          <mxGeometry y="130" width="140" height="26" as="geometry" />
        </mxCell>
        <mxCell id="T3gcn7meiSQSCldg2xHH-260" value="telefone: String" style="text;strokeColor=none;fillColor=none;align=left;verticalAlign=top;spacingLeft=4;spacingRight=4;overflow=hidden;rotatable=0;points=[[0,0.5],[1,0.5]];portConstraint=eastwest;whiteSpace=wrap;html=1;rounded=1;labelBackgroundColor=none;" parent="T3gcn7meiSQSCldg2xHH-254" vertex="1">
          <mxGeometry y="156" width="140" height="26" as="geometry" />
        </mxCell>
        <mxCell id="T3gcn7meiSQSCldg2xHH-261" value="foto: String&amp;lt;URL&amp;gt;" style="text;strokeColor=none;fillColor=none;align=left;verticalAlign=top;spacingLeft=4;spacingRight=4;overflow=hidden;rotatable=0;points=[[0,0.5],[1,0.5]];portConstraint=eastwest;whiteSpace=wrap;html=1;rounded=1;labelBackgroundColor=none;" parent="T3gcn7meiSQSCldg2xHH-254" vertex="1">
          <mxGeometry y="182" width="140" height="26" as="geometry" />
        </mxCell>
        <mxCell id="T3gcn7meiSQSCldg2xHH-262" value="" style="edgeStyle=orthogonalEdgeStyle;rounded=1;orthogonalLoop=1;jettySize=auto;html=1;labelBackgroundColor=none;fontColor=default;" parent="1" source="T3gcn7meiSQSCldg2xHH-264" target="T3gcn7meiSQSCldg2xHH-271" edge="1">
          <mxGeometry relative="1" as="geometry" />
        </mxCell>
        <mxCell id="T3gcn7meiSQSCldg2xHH-263" value="" style="edgeStyle=orthogonalEdgeStyle;rounded=1;orthogonalLoop=1;jettySize=auto;html=1;labelBackgroundColor=none;fontColor=default;" parent="1" source="T3gcn7meiSQSCldg2xHH-264" target="T3gcn7meiSQSCldg2xHH-275" edge="1">
          <mxGeometry relative="1" as="geometry" />
        </mxCell>
        <mxCell id="T3gcn7meiSQSCldg2xHH-264" value="Animal" style="swimlane;fontStyle=1;align=center;verticalAlign=top;childLayout=stackLayout;horizontal=1;startSize=26;horizontalStack=0;resizeParent=1;resizeParentMax=0;resizeLast=0;collapsible=1;marginBottom=0;whiteSpace=wrap;html=1;rounded=1;labelBackgroundColor=none;" parent="1" vertex="1">
          <mxGeometry x="4350" y="-60" width="160" height="164" as="geometry" />
        </mxCell>
        <mxCell id="T3gcn7meiSQSCldg2xHH-265" value="id: int" style="text;strokeColor=none;fillColor=none;align=left;verticalAlign=top;spacingLeft=4;spacingRight=4;overflow=hidden;rotatable=0;points=[[0,0.5],[1,0.5]];portConstraint=eastwest;whiteSpace=wrap;html=1;rounded=1;labelBackgroundColor=none;" parent="T3gcn7meiSQSCldg2xHH-264" vertex="1">
          <mxGeometry y="26" width="160" height="26" as="geometry" />
        </mxCell>
        <mxCell id="T3gcn7meiSQSCldg2xHH-266" value="especie: String" style="text;strokeColor=none;fillColor=none;align=left;verticalAlign=top;spacingLeft=4;spacingRight=4;overflow=hidden;rotatable=0;points=[[0,0.5],[1,0.5]];portConstraint=eastwest;whiteSpace=wrap;html=1;rounded=1;labelBackgroundColor=none;" parent="T3gcn7meiSQSCldg2xHH-264" vertex="1">
          <mxGeometry y="52" width="160" height="26" as="geometry" />
        </mxCell>
        <mxCell id="T3gcn7meiSQSCldg2xHH-267" value="cor: String" style="text;strokeColor=none;fillColor=none;align=left;verticalAlign=top;spacingLeft=4;spacingRight=4;overflow=hidden;rotatable=0;points=[[0,0.5],[1,0.5]];portConstraint=eastwest;whiteSpace=wrap;html=1;rounded=1;labelBackgroundColor=none;" parent="T3gcn7meiSQSCldg2xHH-264" vertex="1">
          <mxGeometry y="78" width="160" height="26" as="geometry" />
        </mxCell>
        <mxCell id="T3gcn7meiSQSCldg2xHH-268" value="descrição: String" style="text;strokeColor=none;fillColor=none;align=left;verticalAlign=top;spacingLeft=4;spacingRight=4;overflow=hidden;rotatable=0;points=[[0,0.5],[1,0.5]];portConstraint=eastwest;whiteSpace=wrap;html=1;rounded=1;labelBackgroundColor=none;" parent="T3gcn7meiSQSCldg2xHH-264" vertex="1">
          <mxGeometry y="104" width="160" height="26" as="geometry" />
        </mxCell>
        <mxCell id="T3gcn7meiSQSCldg2xHH-269" value="" style="line;strokeWidth=1;fillColor=none;align=left;verticalAlign=middle;spacingTop=-1;spacingLeft=3;spacingRight=3;rotatable=0;labelPosition=right;points=[];portConstraint=eastwest;rounded=1;labelBackgroundColor=none;" parent="T3gcn7meiSQSCldg2xHH-264" vertex="1">
          <mxGeometry y="130" width="160" height="8" as="geometry" />
        </mxCell>
        <mxCell id="T3gcn7meiSQSCldg2xHH-270" value="+ method(type): type" style="text;strokeColor=none;fillColor=none;align=left;verticalAlign=top;spacingLeft=4;spacingRight=4;overflow=hidden;rotatable=0;points=[[0,0.5],[1,0.5]];portConstraint=eastwest;whiteSpace=wrap;html=1;rounded=1;labelBackgroundColor=none;" parent="T3gcn7meiSQSCldg2xHH-264" vertex="1">
          <mxGeometry y="138" width="160" height="26" as="geometry" />
        </mxCell>
        <mxCell id="T3gcn7meiSQSCldg2xHH-271" value="&lt;span class=&quot;hljs-title class_&quot;&gt;AnimalSilvestre&lt;/span&gt; &lt;span class=&quot;hljs-keyword&quot;&gt;&lt;/span&gt;" style="swimlane;fontStyle=1;align=center;verticalAlign=top;childLayout=stackLayout;horizontal=1;startSize=26;horizontalStack=0;resizeParent=1;resizeParentMax=0;resizeLast=0;collapsible=1;marginBottom=0;whiteSpace=wrap;html=1;rounded=1;labelBackgroundColor=none;" parent="1" vertex="1">
          <mxGeometry x="4260" y="164" width="160" height="86" as="geometry" />
        </mxCell>
        <mxCell id="T3gcn7meiSQSCldg2xHH-272" value="." style="text;strokeColor=none;fillColor=none;align=left;verticalAlign=top;spacingLeft=4;spacingRight=4;overflow=hidden;rotatable=0;points=[[0,0.5],[1,0.5]];portConstraint=eastwest;whiteSpace=wrap;html=1;rounded=1;labelBackgroundColor=none;" parent="T3gcn7meiSQSCldg2xHH-271" vertex="1">
          <mxGeometry y="26" width="160" height="26" as="geometry" />
        </mxCell>
        <mxCell id="T3gcn7meiSQSCldg2xHH-273" value="" style="line;strokeWidth=1;fillColor=none;align=left;verticalAlign=middle;spacingTop=-1;spacingLeft=3;spacingRight=3;rotatable=0;labelPosition=right;points=[];portConstraint=eastwest;rounded=1;labelBackgroundColor=none;" parent="T3gcn7meiSQSCldg2xHH-271" vertex="1">
          <mxGeometry y="52" width="160" height="8" as="geometry" />
        </mxCell>
        <mxCell id="T3gcn7meiSQSCldg2xHH-274" value="+ method(type): type" style="text;strokeColor=none;fillColor=none;align=left;verticalAlign=top;spacingLeft=4;spacingRight=4;overflow=hidden;rotatable=0;points=[[0,0.5],[1,0.5]];portConstraint=eastwest;whiteSpace=wrap;html=1;rounded=1;labelBackgroundColor=none;" parent="T3gcn7meiSQSCldg2xHH-271" vertex="1">
          <mxGeometry y="60" width="160" height="26" as="geometry" />
        </mxCell>
        <mxCell id="T3gcn7meiSQSCldg2xHH-275" value="Animal" style="swimlane;fontStyle=1;align=center;verticalAlign=top;childLayout=stackLayout;horizontal=1;startSize=26;horizontalStack=0;resizeParent=1;resizeParentMax=0;resizeLast=0;collapsible=1;marginBottom=0;whiteSpace=wrap;html=1;rounded=1;labelBackgroundColor=none;" parent="1" vertex="1">
          <mxGeometry x="4440" y="164" width="160" height="86" as="geometry" />
        </mxCell>
        <mxCell id="T3gcn7meiSQSCldg2xHH-276" value="donos: ArrayList&amp;lt;Pessoa&amp;gt;" style="text;strokeColor=none;fillColor=none;align=left;verticalAlign=top;spacingLeft=4;spacingRight=4;overflow=hidden;rotatable=0;points=[[0,0.5],[1,0.5]];portConstraint=eastwest;whiteSpace=wrap;html=1;rounded=1;labelBackgroundColor=none;" parent="T3gcn7meiSQSCldg2xHH-275" vertex="1">
          <mxGeometry y="26" width="160" height="26" as="geometry" />
        </mxCell>
        <mxCell id="T3gcn7meiSQSCldg2xHH-277" value="" style="line;strokeWidth=1;fillColor=none;align=left;verticalAlign=middle;spacingTop=-1;spacingLeft=3;spacingRight=3;rotatable=0;labelPosition=right;points=[];portConstraint=eastwest;rounded=1;labelBackgroundColor=none;" parent="T3gcn7meiSQSCldg2xHH-275" vertex="1">
          <mxGeometry y="52" width="160" height="8" as="geometry" />
        </mxCell>
        <mxCell id="T3gcn7meiSQSCldg2xHH-278" value="+ method(type): type" style="text;strokeColor=none;fillColor=none;align=left;verticalAlign=top;spacingLeft=4;spacingRight=4;overflow=hidden;rotatable=0;points=[[0,0.5],[1,0.5]];portConstraint=eastwest;whiteSpace=wrap;html=1;rounded=1;labelBackgroundColor=none;" parent="T3gcn7meiSQSCldg2xHH-275" vertex="1">
          <mxGeometry y="60" width="160" height="26" as="geometry" />
        </mxCell>
        <mxCell id="T3gcn7meiSQSCldg2xHH-400" value="&lt;font style=&quot;font-size: 48px;&quot;&gt;DOCUMENTAÇÃO DE PROCESSOS&lt;/font&gt;" style="text;strokeColor=none;fillColor=none;html=1;fontSize=24;fontStyle=1;verticalAlign=middle;align=center;" parent="1" vertex="1">
          <mxGeometry x="3450" y="686" width="100" height="40" as="geometry" />
        </mxCell>
        <mxCell id="T3gcn7meiSQSCldg2xHH-401" value="" style="edgeStyle=orthogonalEdgeStyle;rounded=0;orthogonalLoop=1;jettySize=auto;html=1;" parent="1" source="T3gcn7meiSQSCldg2xHH-404" target="T3gcn7meiSQSCldg2xHH-406" edge="1">
          <mxGeometry relative="1" as="geometry">
            <Array as="points">
              <mxPoint x="3230" y="1151" />
              <mxPoint x="3230" y="1026" />
            </Array>
          </mxGeometry>
        </mxCell>
        <mxCell id="T3gcn7meiSQSCldg2xHH-402" value="" style="edgeStyle=orthogonalEdgeStyle;rounded=0;orthogonalLoop=1;jettySize=auto;html=1;" parent="1" source="T3gcn7meiSQSCldg2xHH-404" target="T3gcn7meiSQSCldg2xHH-409" edge="1">
          <mxGeometry relative="1" as="geometry" />
        </mxCell>
        <mxCell id="T3gcn7meiSQSCldg2xHH-403" value="" style="edgeStyle=orthogonalEdgeStyle;rounded=0;orthogonalLoop=1;jettySize=auto;html=1;" parent="1" source="T3gcn7meiSQSCldg2xHH-404" target="T3gcn7meiSQSCldg2xHH-411" edge="1">
          <mxGeometry relative="1" as="geometry">
            <Array as="points">
              <mxPoint x="3230" y="1151" />
              <mxPoint x="3230" y="1386" />
            </Array>
          </mxGeometry>
        </mxCell>
        <mxCell id="T3gcn7meiSQSCldg2xHH-404" value="LOGIN" style="html=1;whiteSpace=wrap;aspect=fixed;shape=label;rounded=0;" parent="1" vertex="1">
          <mxGeometry x="2965" y="1106" width="150" height="90" as="geometry" />
        </mxCell>
        <mxCell id="T3gcn7meiSQSCldg2xHH-405" value="" style="edgeStyle=orthogonalEdgeStyle;rounded=0;orthogonalLoop=1;jettySize=auto;html=1;" parent="1" source="T3gcn7meiSQSCldg2xHH-406" target="T3gcn7meiSQSCldg2xHH-407" edge="1">
          <mxGeometry relative="1" as="geometry" />
        </mxCell>
        <mxCell id="T3gcn7meiSQSCldg2xHH-406" value="&lt;div&gt;CADASTRO&lt;/div&gt;&lt;div&gt;DE PESSOA&lt;/div&gt;" style="html=1;whiteSpace=wrap;aspect=fixed;shape=label;rounded=0;" parent="1" vertex="1">
          <mxGeometry x="3270" y="976" width="166.67" height="100" as="geometry" />
        </mxCell>
        <mxCell id="T3gcn7meiSQSCldg2xHH-407" value="SAVECHANGES" style="html=1;whiteSpace=wrap;aspect=fixed;shape=label;rounded=0;" parent="1" vertex="1">
          <mxGeometry x="3520" y="976" width="166.67" height="100" as="geometry" />
        </mxCell>
        <mxCell id="T3gcn7meiSQSCldg2xHH-408" value="" style="edgeStyle=orthogonalEdgeStyle;rounded=0;orthogonalLoop=1;jettySize=auto;html=1;" parent="1" source="T3gcn7meiSQSCldg2xHH-409" target="T3gcn7meiSQSCldg2xHH-410" edge="1">
          <mxGeometry relative="1" as="geometry" />
        </mxCell>
        <mxCell id="T3gcn7meiSQSCldg2xHH-409" value="&lt;div&gt;CADASTRO&lt;/div&gt;&lt;div&gt;DE ANIMAL&lt;/div&gt;" style="html=1;whiteSpace=wrap;aspect=fixed;shape=label;rounded=0;" parent="1" vertex="1">
          <mxGeometry x="3270" y="1101" width="166.67" height="100" as="geometry" />
        </mxCell>
        <mxCell id="T3gcn7meiSQSCldg2xHH-410" value="SAVECHANGES" style="html=1;whiteSpace=wrap;aspect=fixed;shape=label;rounded=0;" parent="1" vertex="1">
          <mxGeometry x="3513.33" y="1101" width="166.67" height="100" as="geometry" />
        </mxCell>
        <mxCell id="T3gcn7meiSQSCldg2xHH-411" value="CADASTRO DE OCORRENCIA" style="html=1;whiteSpace=wrap;aspect=fixed;shape=isoRectangle;" parent="1" vertex="1">
          <mxGeometry x="3550" y="1336" width="166.67" height="100" as="geometry" />
        </mxCell>
        <mxCell id="T3gcn7meiSQSCldg2xHH-412" value="" style="edgeStyle=orthogonalEdgeStyle;rounded=0;orthogonalLoop=1;jettySize=auto;html=1;" parent="1" source="T3gcn7meiSQSCldg2xHH-413" target="T3gcn7meiSQSCldg2xHH-417" edge="1">
          <mxGeometry relative="1" as="geometry" />
        </mxCell>
        <mxCell id="T3gcn7meiSQSCldg2xHH-413" value="&lt;div&gt;OCORRENCIA&lt;/div&gt;&lt;div&gt;SILVESTRE&lt;/div&gt;" style="html=1;whiteSpace=wrap;aspect=fixed;shape=label;rounded=0;" parent="1" vertex="1">
          <mxGeometry x="3830" y="1466" width="166.67" height="100" as="geometry" />
        </mxCell>
        <mxCell id="T3gcn7meiSQSCldg2xHH-414" value="" style="edgeStyle=orthogonalEdgeStyle;rounded=0;orthogonalLoop=1;jettySize=auto;html=1;" parent="1" source="T3gcn7meiSQSCldg2xHH-415" target="T3gcn7meiSQSCldg2xHH-434" edge="1">
          <mxGeometry relative="1" as="geometry" />
        </mxCell>
        <mxCell id="T3gcn7meiSQSCldg2xHH-415" value="&lt;div&gt;OCORRENCIA&lt;/div&gt;&lt;div&gt;DOMESTICO&lt;/div&gt;" style="html=1;whiteSpace=wrap;aspect=fixed;shape=label;rounded=0;" parent="1" vertex="1">
          <mxGeometry x="3830" y="1216" width="166.67" height="100" as="geometry" />
        </mxCell>
        <mxCell id="T3gcn7meiSQSCldg2xHH-416" value="" style="edgeStyle=orthogonalEdgeStyle;rounded=0;orthogonalLoop=1;jettySize=auto;html=1;" parent="1" source="T3gcn7meiSQSCldg2xHH-417" target="T3gcn7meiSQSCldg2xHH-419" edge="1">
          <mxGeometry relative="1" as="geometry" />
        </mxCell>
        <mxCell id="T3gcn7meiSQSCldg2xHH-417" value="&lt;div&gt;CADASTRO&lt;/div&gt;&lt;div&gt;DE ANIMAL&lt;/div&gt;" style="html=1;whiteSpace=wrap;aspect=fixed;shape=label;rounded=0;" parent="1" vertex="1">
          <mxGeometry x="4076.67" y="1466" width="166.67" height="100" as="geometry" />
        </mxCell>
        <mxCell id="T3gcn7meiSQSCldg2xHH-418" value="" style="edgeStyle=orthogonalEdgeStyle;rounded=0;orthogonalLoop=1;jettySize=auto;html=1;" parent="1" source="T3gcn7meiSQSCldg2xHH-419" target="T3gcn7meiSQSCldg2xHH-420" edge="1">
          <mxGeometry relative="1" as="geometry" />
        </mxCell>
        <mxCell id="T3gcn7meiSQSCldg2xHH-419" value="SAVECHANGES" style="html=1;whiteSpace=wrap;aspect=fixed;shape=label;rounded=0;" parent="1" vertex="1">
          <mxGeometry x="4323.34" y="1466" width="166.67" height="100" as="geometry" />
        </mxCell>
        <mxCell id="T3gcn7meiSQSCldg2xHH-420" value="&lt;div&gt;GERAR&lt;/div&gt;&lt;div&gt;RELATORIO&lt;/div&gt;" style="html=1;whiteSpace=wrap;aspect=fixed;shape=label;rounded=0;" parent="1" vertex="1">
          <mxGeometry x="4570.01" y="1466" width="166.67" height="100" as="geometry" />
        </mxCell>
        <mxCell id="T3gcn7meiSQSCldg2xHH-432" value="" style="edgeStyle=orthogonalEdgeStyle;rounded=0;orthogonalLoop=1;jettySize=auto;html=1;" parent="1" source="T3gcn7meiSQSCldg2xHH-434" target="T3gcn7meiSQSCldg2xHH-436" edge="1">
          <mxGeometry relative="1" as="geometry" />
        </mxCell>
        <mxCell id="T3gcn7meiSQSCldg2xHH-433" value="" style="edgeStyle=orthogonalEdgeStyle;rounded=0;orthogonalLoop=1;jettySize=auto;html=1;" parent="1" source="T3gcn7meiSQSCldg2xHH-434" target="T3gcn7meiSQSCldg2xHH-441" edge="1">
          <mxGeometry relative="1" as="geometry" />
        </mxCell>
        <mxCell id="T3gcn7meiSQSCldg2xHH-434" value="&lt;div&gt;BUSCAR PESSOA&lt;/div&gt;&lt;div&gt;BUSCAR ANIMAL&lt;/div&gt;" style="html=1;whiteSpace=wrap;aspect=fixed;shape=isoRectangle;rounded=0;" parent="1" vertex="1">
          <mxGeometry x="4076.67" y="1216" width="166.67" height="100" as="geometry" />
        </mxCell>
        <mxCell id="T3gcn7meiSQSCldg2xHH-435" value="" style="edgeStyle=orthogonalEdgeStyle;rounded=0;orthogonalLoop=1;jettySize=auto;html=1;" parent="1" source="T3gcn7meiSQSCldg2xHH-436" target="T3gcn7meiSQSCldg2xHH-437" edge="1">
          <mxGeometry relative="1" as="geometry" />
        </mxCell>
        <mxCell id="T3gcn7meiSQSCldg2xHH-436" value="&lt;div&gt;CASO NÃO TENHA&lt;/div&gt;&lt;div&gt;DONO CADASTRADO&lt;/div&gt;" style="html=1;whiteSpace=wrap;aspect=fixed;shape=isoRectangle;" parent="1" vertex="1">
          <mxGeometry x="4076.67" y="1036" width="166.67" height="100" as="geometry" />
        </mxCell>
        <mxCell id="T3gcn7meiSQSCldg2xHH-437" value="&lt;div&gt;ENCAMINHA&lt;/div&gt;&lt;div&gt;PARA ADOÇÃO&lt;/div&gt;" style="html=1;whiteSpace=wrap;aspect=fixed;shape=label;rounded=0;" parent="1" vertex="1">
          <mxGeometry x="4323.34" y="1036" width="166.67" height="100" as="geometry" />
        </mxCell>
        <mxCell id="T3gcn7meiSQSCldg2xHH-438" value="" style="endArrow=classic;html=1;rounded=0;exitX=0.999;exitY=0.501;exitDx=0;exitDy=0;exitPerimeter=0;entryX=0;entryY=0.5;entryDx=0;entryDy=0;entryPerimeter=0;" parent="1" source="T3gcn7meiSQSCldg2xHH-411" target="T3gcn7meiSQSCldg2xHH-413" edge="1">
          <mxGeometry width="50" height="50" relative="1" as="geometry">
            <mxPoint x="4010" y="1446" as="sourcePoint" />
            <mxPoint x="4060" y="1396" as="targetPoint" />
            <Array as="points">
              <mxPoint x="3790" y="1386" />
              <mxPoint x="3790" y="1516" />
            </Array>
          </mxGeometry>
        </mxCell>
        <mxCell id="T3gcn7meiSQSCldg2xHH-439" value="" style="endArrow=classic;html=1;rounded=0;exitX=0.999;exitY=0.501;exitDx=0;exitDy=0;exitPerimeter=0;entryX=-0.005;entryY=0.498;entryDx=0;entryDy=0;entryPerimeter=0;" parent="1" source="T3gcn7meiSQSCldg2xHH-411" target="T3gcn7meiSQSCldg2xHH-415" edge="1">
          <mxGeometry width="50" height="50" relative="1" as="geometry">
            <mxPoint x="3770" y="1386" as="sourcePoint" />
            <mxPoint x="3850" y="1526" as="targetPoint" />
            <Array as="points">
              <mxPoint x="3790" y="1386" />
              <mxPoint x="3790" y="1266" />
            </Array>
          </mxGeometry>
        </mxCell>
        <mxCell id="T3gcn7meiSQSCldg2xHH-440" value="" style="edgeStyle=orthogonalEdgeStyle;rounded=0;orthogonalLoop=1;jettySize=auto;html=1;fontFamily=Helvetica;fontSize=12;fontColor=default;" parent="1" source="T3gcn7meiSQSCldg2xHH-441" target="T3gcn7meiSQSCldg2xHH-443" edge="1">
          <mxGeometry relative="1" as="geometry" />
        </mxCell>
        <mxCell id="T3gcn7meiSQSCldg2xHH-441" value="&lt;div&gt;ANIMAL&lt;/div&gt;&lt;div&gt;RECEBE MULTA&lt;/div&gt;" style="html=1;whiteSpace=wrap;aspect=fixed;shape=label;rounded=0;" parent="1" vertex="1">
          <mxGeometry x="4323.34" y="1216" width="166.67" height="100" as="geometry" />
        </mxCell>
        <mxCell id="T3gcn7meiSQSCldg2xHH-442" value="" style="edgeStyle=orthogonalEdgeStyle;rounded=0;orthogonalLoop=1;jettySize=auto;html=1;fontFamily=Helvetica;fontSize=12;fontColor=default;" parent="1" source="T3gcn7meiSQSCldg2xHH-443" target="T3gcn7meiSQSCldg2xHH-444" edge="1">
          <mxGeometry relative="1" as="geometry" />
        </mxCell>
        <mxCell id="T3gcn7meiSQSCldg2xHH-443" value="&lt;div&gt;CASO DONO&lt;/div&gt;&lt;div&gt;NÃO BUSQUE&lt;/div&gt;" style="html=1;whiteSpace=wrap;aspect=fixed;shape=rhombus;rounded=0;perimeter=rhombusPerimeter;" parent="1" vertex="1">
          <mxGeometry x="4570.01" y="1216" width="166.67" height="100" as="geometry" />
        </mxCell>
        <mxCell id="T3gcn7meiSQSCldg2xHH-444" value="&lt;div&gt;ENCAMINHA&amp;nbsp;&lt;/div&gt;&lt;div&gt;PARA ADOÇÃO&lt;/div&gt;" style="html=1;whiteSpace=wrap;aspect=fixed;shape=label;rounded=0;" parent="1" vertex="1">
          <mxGeometry x="4816.68" y="1216" width="166.67" height="100" as="geometry" />
        </mxCell>
      </root>
    </mxGraphModel>
  </diagram>
</mxfile>
